<?xml version="1.0" encoding="utf-8" ?><svg version="1.1" xmlns="http://www.w3.org/2000/svg" xmlns:xlink="http://www.w3.org/1999/xlink" width="144px" height="144px" viewBox="0 0 1440 1440"><g><circle id="C" cx="720" cy="720" r="180"></circle><path id="R1" d="M1205.172,393.015c21.124,31.268,39.262,64.684,53.912,99.318C1289.552,564.368,1305,640.965,1305,720c0,79.034-15.448,155.632-45.916,227.667c-14.65,34.635-32.788,68.05-53.912,99.318c-20.947,31.006-45.009,60.166-71.515,86.672l0,0l95.46,95.46C1359.411,1098.823,1440,918.822,1440,720s-80.589-378.823-210.883-509.117l-95.46,95.459C1160.163,332.849,1184.225,362.009,1205.172,393.015z"></path><path id="L1" d="M306.342,1133.657c-26.506-26.506-50.566-55.667-71.513-86.672c-21.125-31.269-39.263-64.684-53.912-99.318C150.449,875.632,135,799.033,135,720c0-79.034,15.449-155.632,45.917-227.667c14.649-34.634,32.788-68.05,53.912-99.317c20.947-31.006,45.007-60.167,71.513-86.673c0,0,0,0,0,0l-95.459-95.459C80.589,341.177,0,521.177,0,720s80.589,378.823,210.883,509.118L306.342,1133.657C306.343,1133.657,306.342,1133.657,306.342,1133.657z"></path><path id="R2" d="M1010.302,597.43C1026.689,636.177,1035,677.416,1035,720s-8.311,83.822-24.698,122.57c-15.859,37.494-38.591,71.195-67.563,100.168l0,0l95.459,95.46C1119.632,956.764,1170,844.264,1170,720c0-124.264-50.368-236.764-131.802-318.198l-95.46,95.459C971.711,526.234,994.442,559.936,1010.302,597.43z"></path><path id="L2" d="M497.261,942.738c-28.973-28.973-51.704-62.674-67.563-100.168C413.31,803.822,405,762.584,405,720s8.31-83.823,24.699-122.57c15.858-37.494,38.59-71.196,67.563-100.168l0,0l-95.459-95.459C320.368,483.236,270,595.736,270,720c0,124.264,50.368,236.764,131.802,318.198L497.261,942.738L497.261,942.738z"></path></g><script type="text/javascript"><![CDATA[
  var loop = ["L1","R1","L2","R2"].map(function(it){return document.getElementById(it);});
  var c = document.getElementById("C");
  var i=0,j=0, r = 0, g = 0;
  setInterval(function() {
    loop[j].style.fill = "#000";
    loop[i].style.fill = "rgba("+(r+128)+","+g+",64,1)";
    c.style.opacity = (i<2?"0.5":"1");
    j=i; i=(i+1)%4; r = (r + 5) % 128; g = (g + 4) % 256;
  }, 250);
]]></script></svg>